<mxfile host="65bd71144e">
    <diagram id="hV0SHfoGrisFIh4XmOlX" name="Mandatory">
        <mxGraphModel dx="251" dy="416" grid="1" gridSize="10" guides="1" tooltips="1" connect="1" arrows="1" fold="1" page="1" pageScale="1" pageWidth="827" pageHeight="1169" math="0" shadow="0">
            <root>
                <mxCell id="0"/>
                <mxCell id="1" parent="0"/>
                <mxCell id="18" style="edgeStyle=none;html=1;entryX=0;entryY=0.5;entryDx=0;entryDy=0;exitX=1;exitY=0.5;exitDx=0;exitDy=0;" parent="1" source="33" target="12" edge="1">
                    <mxGeometry relative="1" as="geometry">
                        <mxPoint x="129" y="317" as="sourcePoint"/>
                    </mxGeometry>
                </mxCell>
                <mxCell id="26" style="edgeStyle=none;html=1;entryX=0.5;entryY=0;entryDx=0;entryDy=0;exitX=0.5;exitY=1;exitDx=0;exitDy=0;" parent="1" source="4" target="39" edge="1">
                    <mxGeometry relative="1" as="geometry">
                        <mxPoint x="68" y="521" as="targetPoint"/>
                        <mxPoint x="60" y="445" as="sourcePoint"/>
                    </mxGeometry>
                </mxCell>
                <mxCell id="34" style="edgeStyle=none;html=1;exitX=1;exitY=0.25;exitDx=0;exitDy=0;entryX=0;entryY=0.5;entryDx=0;entryDy=0;" parent="1" source="4" target="33" edge="1">
                    <mxGeometry relative="1" as="geometry"/>
                </mxCell>
                <mxCell id="4" value="main" style="rounded=0;whiteSpace=wrap;html=1;strokeWidth=1;fillColor=#6a00ff;fontColor=#ffffff;strokeColor=default;" parent="1" vertex="1">
                    <mxGeometry x="2" y="361" width="60" height="40" as="geometry"/>
                </mxCell>
                <mxCell id="6" value="" style="endArrow=classic;html=1;entryX=0;entryY=0.5;entryDx=0;entryDy=0;exitX=1;exitY=0.25;exitDx=0;exitDy=0;" parent="1" source="33" target="13" edge="1">
                    <mxGeometry width="50" height="50" relative="1" as="geometry">
                        <mxPoint x="129" y="307" as="sourcePoint"/>
                        <mxPoint x="429" y="171.5" as="targetPoint"/>
                    </mxGeometry>
                </mxCell>
                <mxCell id="38" style="edgeStyle=none;html=1;entryX=0;entryY=0.5;entryDx=0;entryDy=0;exitX=1;exitY=0.5;exitDx=0;exitDy=0;" parent="1" source="33" target="35" edge="1">
                    <mxGeometry relative="1" as="geometry">
                        <mxPoint x="299" y="200" as="targetPoint"/>
                        <mxPoint x="190" y="170" as="sourcePoint"/>
                    </mxGeometry>
                </mxCell>
                <mxCell id="11" value="lst2map" style="rounded=0;whiteSpace=wrap;html=1;fillColor=#6a00ff;fontColor=#ffffff;strokeColor=#3700CC;" parent="1" vertex="1">
                    <mxGeometry x="261" y="270" width="60" height="41" as="geometry"/>
                </mxCell>
                <mxCell id="22" style="edgeStyle=none;html=1;entryX=0;entryY=0.5;entryDx=0;entryDy=0;exitX=1;exitY=0.75;exitDx=0;exitDy=0;" parent="1" source="33" target="19" edge="1">
                    <mxGeometry relative="1" as="geometry">
                        <mxPoint x="179" y="227" as="sourcePoint"/>
                    </mxGeometry>
                </mxCell>
                <mxCell id="12" value="scene&lt;br&gt;open" style="rounded=0;whiteSpace=wrap;html=1;fillColor=#6a00ff;fontColor=#ffffff;strokeColor=#3700CC;" parent="1" vertex="1">
                    <mxGeometry x="261" y="60" width="60" height="40" as="geometry"/>
                </mxCell>
                <mxCell id="13" value="scene&lt;br&gt;init" style="rounded=0;whiteSpace=wrap;html=1;fillColor=#6a00ff;fontColor=#ffffff;strokeColor=#3700CC;" parent="1" vertex="1">
                    <mxGeometry x="261" y="9" width="60" height="40" as="geometry"/>
                </mxCell>
                <mxCell id="15" value="" style="endArrow=classic;html=1;entryX=0;entryY=0.5;entryDx=0;entryDy=0;exitX=1;exitY=0.75;exitDx=0;exitDy=0;" parent="1" source="33" target="11" edge="1">
                    <mxGeometry width="50" height="50" relative="1" as="geometry">
                        <mxPoint x="209" y="267" as="sourcePoint"/>
                        <mxPoint x="217" y="64" as="targetPoint"/>
                    </mxGeometry>
                </mxCell>
                <mxCell id="25" style="edgeStyle=none;html=1;exitX=1;exitY=0.25;exitDx=0;exitDy=0;entryX=0;entryY=0.5;entryDx=0;entryDy=0;" parent="1" source="46" target="51" edge="1">
                    <mxGeometry relative="1" as="geometry"/>
                </mxCell>
                <mxCell id="45" style="edgeStyle=none;html=1;entryX=0;entryY=0.5;entryDx=0;entryDy=0;exitX=1;exitY=0.5;exitDx=0;exitDy=0;" parent="1" source="33" target="44" edge="1">
                    <mxGeometry relative="1" as="geometry">
                        <mxPoint x="189" y="177" as="sourcePoint"/>
                    </mxGeometry>
                </mxCell>
                <mxCell id="47" style="edgeStyle=none;html=1;entryX=0;entryY=0.5;entryDx=0;entryDy=0;exitX=1;exitY=0.75;exitDx=0;exitDy=0;" parent="1" source="4" target="46" edge="1">
                    <mxGeometry relative="1" as="geometry">
                        <mxPoint x="80" y="425" as="sourcePoint"/>
                    </mxGeometry>
                </mxCell>
                <mxCell id="19" value="map&lt;br&gt;valid" style="rounded=0;whiteSpace=wrap;html=1;fillColor=#6a00ff;fontColor=#ffffff;strokeColor=#3700CC;" parent="1" vertex="1">
                    <mxGeometry x="261" y="351" width="60" height="40" as="geometry"/>
                </mxCell>
                <mxCell id="24" value="map&lt;br&gt;encode" style="rounded=0;whiteSpace=wrap;html=1;fillColor=#6a00ff;fontColor=#ffffff;strokeColor=#3700CC;" parent="1" vertex="1">
                    <mxGeometry x="261" y="311" width="60" height="40" as="geometry"/>
                </mxCell>
                <mxCell id="31" value="argv" style="ellipse;whiteSpace=wrap;html=1;" parent="1" vertex="1">
                    <mxGeometry x="360" y="62" width="42" height="35" as="geometry"/>
                </mxCell>
                <mxCell id="32" value="" style="endArrow=classic;html=1;exitX=0;exitY=0.5;exitDx=0;exitDy=0;entryX=1;entryY=0.5;entryDx=0;entryDy=0;" parent="1" source="31" target="12" edge="1">
                    <mxGeometry width="50" height="50" relative="1" as="geometry">
                        <mxPoint x="431" y="39" as="sourcePoint"/>
                        <mxPoint x="433" as="targetPoint"/>
                    </mxGeometry>
                </mxCell>
                <mxCell id="33" value="main&lt;br&gt;scene" style="rounded=0;whiteSpace=wrap;html=1;fillColor=#6a00ff;fontColor=#ffffff;strokeColor=#3700CC;" parent="1" vertex="1">
                    <mxGeometry x="119" y="179" width="60" height="40" as="geometry"/>
                </mxCell>
                <mxCell id="35" value="scene&lt;br&gt;def" style="rounded=0;whiteSpace=wrap;html=1;fillColor=#6a00ff;fontColor=#ffffff;strokeColor=#3700CC;" parent="1" vertex="1">
                    <mxGeometry x="261" y="100" width="60" height="40" as="geometry"/>
                </mxCell>
                <mxCell id="39" value="clean" style="rounded=0;whiteSpace=wrap;html=1;fillColor=#6a00ff;fontColor=#ffffff;strokeColor=#3700CC;" parent="1" vertex="1">
                    <mxGeometry x="2" y="586" width="60" height="40" as="geometry"/>
                </mxCell>
                <mxCell id="44" value="map&lt;br&gt;read" style="rounded=0;whiteSpace=wrap;html=1;fillColor=#6a00ff;fontColor=#ffffff;strokeColor=#3700CC;" parent="1" vertex="1">
                    <mxGeometry x="261" y="140" width="60" height="40" as="geometry"/>
                </mxCell>
                <mxCell id="46" value="main&lt;br&gt;win" style="rounded=0;whiteSpace=wrap;html=1;fillColor=#6a00ff;fontColor=#ffffff;strokeColor=#3700CC;" parent="1" vertex="1">
                    <mxGeometry x="120" y="541" width="60" height="40" as="geometry"/>
                </mxCell>
                <mxCell id="51" value="win&lt;br&gt;init" style="rounded=0;whiteSpace=wrap;html=1;fillColor=#6a00ff;fontColor=#ffffff;strokeColor=#3700CC;" parent="1" vertex="1">
                    <mxGeometry x="260" y="450" width="60" height="40" as="geometry"/>
                </mxCell>
                <mxCell id="59" style="edgeStyle=none;html=1;exitX=1;exitY=0.25;exitDx=0;exitDy=0;entryX=0;entryY=0.5;entryDx=0;entryDy=0;" parent="1" source="46" target="52" edge="1">
                    <mxGeometry relative="1" as="geometry">
                        <mxPoint x="250" y="470" as="targetPoint"/>
                    </mxGeometry>
                </mxCell>
                <mxCell id="52" value="mlx&lt;br&gt;init" style="rounded=0;whiteSpace=wrap;html=1;fillColor=#6a00ff;fontColor=#ffffff;strokeColor=#3700CC;" parent="1" vertex="1">
                    <mxGeometry x="260" y="410" width="60" height="40" as="geometry"/>
                </mxCell>
                <mxCell id="56" value="map&lt;br&gt;trim" style="rounded=0;whiteSpace=wrap;html=1;fillColor=#6a00ff;fontColor=#ffffff;strokeColor=#3700CC;" parent="1" vertex="1">
                    <mxGeometry x="261" y="190" width="60" height="40" as="geometry"/>
                </mxCell>
                <mxCell id="67" style="edgeStyle=none;html=1;exitX=1;exitY=0.75;exitDx=0;exitDy=0;entryX=0;entryY=0.5;entryDx=0;entryDy=0;" parent="1" source="33" target="56" edge="1">
                    <mxGeometry relative="1" as="geometry">
                        <mxPoint x="269" y="437" as="sourcePoint"/>
                        <mxPoint x="318" y="413" as="targetPoint"/>
                    </mxGeometry>
                </mxCell>
                <mxCell id="68" style="edgeStyle=none;html=1;entryX=0;entryY=0.5;entryDx=0;entryDy=0;exitX=1;exitY=0.75;exitDx=0;exitDy=0;" parent="1" source="33" target="24" edge="1">
                    <mxGeometry relative="1" as="geometry">
                        <mxPoint x="219" y="277" as="sourcePoint"/>
                        <mxPoint x="318" y="357" as="targetPoint"/>
                    </mxGeometry>
                </mxCell>
                <mxCell id="NXFUlHPYo5hBLQqX9jPC-74" value="map&lt;br&gt;chk" style="rounded=0;whiteSpace=wrap;html=1;fillColor=#6a00ff;fontColor=#ffffff;strokeColor=#3700CC;" vertex="1" parent="1">
                    <mxGeometry x="261" y="230" width="60" height="40" as="geometry"/>
                </mxCell>
                <mxCell id="NXFUlHPYo5hBLQqX9jPC-75" value="win&lt;br&gt;draw&lt;br&gt;vision" style="rounded=0;whiteSpace=wrap;html=1;fillColor=#6a00ff;fontColor=#ffffff;strokeColor=#3700CC;" vertex="1" parent="1">
                    <mxGeometry x="341" y="540" width="60" height="40" as="geometry"/>
                </mxCell>
                <mxCell id="NXFUlHPYo5hBLQqX9jPC-76" value="img&lt;br&gt;init" style="rounded=0;whiteSpace=wrap;html=1;fillColor=#6a00ff;fontColor=#ffffff;strokeColor=#3700CC;" vertex="1" parent="1">
                    <mxGeometry x="260" y="490" width="60" height="40" as="geometry"/>
                </mxCell>
                <mxCell id="NXFUlHPYo5hBLQqX9jPC-77" value="mlx&lt;br&gt;expose&lt;br&gt;hook" style="rounded=0;whiteSpace=wrap;html=1;" vertex="1" parent="1">
                    <mxGeometry x="261" y="630" width="60" height="40" as="geometry"/>
                </mxCell>
                <mxCell id="NXFUlHPYo5hBLQqX9jPC-78" value="mlx&lt;br&gt;hook" style="rounded=0;whiteSpace=wrap;html=1;" vertex="1" parent="1">
                    <mxGeometry x="261" y="590" width="60" height="40" as="geometry"/>
                </mxCell>
                <mxCell id="NXFUlHPYo5hBLQqX9jPC-79" value="mlx&lt;br&gt;loop" style="rounded=0;whiteSpace=wrap;html=1;" vertex="1" parent="1">
                    <mxGeometry x="261" y="710" width="60" height="40" as="geometry"/>
                </mxCell>
                <mxCell id="NXFUlHPYo5hBLQqX9jPC-80" value="mlx&lt;br&gt;loop&lt;br&gt;hook" style="rounded=0;whiteSpace=wrap;html=1;" vertex="1" parent="1">
                    <mxGeometry x="261" y="670" width="60" height="40" as="geometry"/>
                </mxCell>
                <mxCell id="NXFUlHPYo5hBLQqX9jPC-81" style="edgeStyle=none;html=1;exitX=1;exitY=0.5;exitDx=0;exitDy=0;entryX=0;entryY=0.5;entryDx=0;entryDy=0;" edge="1" parent="1" source="46" target="NXFUlHPYo5hBLQqX9jPC-75">
                    <mxGeometry relative="1" as="geometry">
                        <mxPoint x="210" y="520" as="sourcePoint"/>
                        <mxPoint x="258" y="546" as="targetPoint"/>
                    </mxGeometry>
                </mxCell>
                <mxCell id="NXFUlHPYo5hBLQqX9jPC-82" style="edgeStyle=none;html=1;exitX=1;exitY=0.25;exitDx=0;exitDy=0;entryX=0;entryY=0.5;entryDx=0;entryDy=0;" edge="1" parent="1" source="46" target="NXFUlHPYo5hBLQqX9jPC-76">
                    <mxGeometry relative="1" as="geometry">
                        <mxPoint x="240" y="520" as="targetPoint"/>
                        <mxPoint x="230" y="470" as="sourcePoint"/>
                    </mxGeometry>
                </mxCell>
                <mxCell id="NXFUlHPYo5hBLQqX9jPC-83" style="edgeStyle=none;html=1;exitX=1;exitY=0.75;exitDx=0;exitDy=0;entryX=0;entryY=0.5;entryDx=0;entryDy=0;" edge="1" parent="1" source="46" target="NXFUlHPYo5hBLQqX9jPC-78">
                    <mxGeometry relative="1" as="geometry">
                        <mxPoint x="230" y="602" as="sourcePoint"/>
                        <mxPoint x="278" y="628" as="targetPoint"/>
                    </mxGeometry>
                </mxCell>
                <mxCell id="NXFUlHPYo5hBLQqX9jPC-84" style="edgeStyle=none;html=1;exitX=1;exitY=0.75;exitDx=0;exitDy=0;entryX=0;entryY=0.5;entryDx=0;entryDy=0;" edge="1" parent="1" source="46" target="NXFUlHPYo5hBLQqX9jPC-79">
                    <mxGeometry relative="1" as="geometry">
                        <mxPoint x="279" y="578" as="targetPoint"/>
                        <mxPoint x="230" y="602" as="sourcePoint"/>
                    </mxGeometry>
                </mxCell>
                <mxCell id="NXFUlHPYo5hBLQqX9jPC-85" style="edgeStyle=none;html=1;exitX=1;exitY=0.75;exitDx=0;exitDy=0;entryX=0;entryY=0.5;entryDx=0;entryDy=0;" edge="1" parent="1" source="46" target="NXFUlHPYo5hBLQqX9jPC-77">
                    <mxGeometry relative="1" as="geometry">
                        <mxPoint x="220" y="662" as="sourcePoint"/>
                        <mxPoint x="250" y="680" as="targetPoint"/>
                    </mxGeometry>
                </mxCell>
                <mxCell id="NXFUlHPYo5hBLQqX9jPC-86" style="edgeStyle=none;html=1;exitX=1;exitY=0.75;exitDx=0;exitDy=0;entryX=0;entryY=0.5;entryDx=0;entryDy=0;" edge="1" parent="1" source="46" target="NXFUlHPYo5hBLQqX9jPC-80">
                    <mxGeometry relative="1" as="geometry">
                        <mxPoint x="250" y="662" as="targetPoint"/>
                        <mxPoint x="240" y="612" as="sourcePoint"/>
                    </mxGeometry>
                </mxCell>
                <mxCell id="NXFUlHPYo5hBLQqX9jPC-88" value="" style="endArrow=classic;html=1;entryX=0;entryY=0.5;entryDx=0;entryDy=0;exitX=1;exitY=0.75;exitDx=0;exitDy=0;" edge="1" parent="1" source="33" target="NXFUlHPYo5hBLQqX9jPC-74">
                    <mxGeometry width="50" height="50" relative="1" as="geometry">
                        <mxPoint x="180" y="210" as="sourcePoint"/>
                        <mxPoint x="339" y="279.5" as="targetPoint"/>
                    </mxGeometry>
                </mxCell>
                <mxCell id="NXFUlHPYo5hBLQqX9jPC-89" value="window" style="ellipse;whiteSpace=wrap;html=1;" vertex="1" parent="1">
                    <mxGeometry x="350" y="452.5" width="42" height="35" as="geometry"/>
                </mxCell>
                <mxCell id="NXFUlHPYo5hBLQqX9jPC-90" style="edgeStyle=none;html=1;entryX=0;entryY=0.5;entryDx=0;entryDy=0;exitX=1;exitY=0.5;exitDx=0;exitDy=0;" edge="1" parent="1" source="51" target="NXFUlHPYo5hBLQqX9jPC-89">
                    <mxGeometry relative="1" as="geometry">
                        <mxPoint x="152" y="401" as="sourcePoint"/>
                        <mxPoint x="210" y="571" as="targetPoint"/>
                    </mxGeometry>
                </mxCell>
                <mxCell id="NXFUlHPYo5hBLQqX9jPC-91" style="edgeStyle=none;html=1;entryX=0.5;entryY=1;entryDx=0;entryDy=0;exitX=0.5;exitY=0;exitDx=0;exitDy=0;" edge="1" parent="1" source="NXFUlHPYo5hBLQqX9jPC-75" target="NXFUlHPYo5hBLQqX9jPC-89">
                    <mxGeometry relative="1" as="geometry">
                        <mxPoint x="430" y="550" as="sourcePoint"/>
                        <mxPoint x="449.9999999999992" y="480" as="targetPoint"/>
                    </mxGeometry>
                </mxCell>
                <mxCell id="NXFUlHPYo5hBLQqX9jPC-92" style="edgeStyle=none;html=1;entryX=0;entryY=0.5;entryDx=0;entryDy=0;exitX=1;exitY=0.5;exitDx=0;exitDy=0;" edge="1" parent="1" target="NXFUlHPYo5hBLQqX9jPC-93" source="35">
                    <mxGeometry relative="1" as="geometry">
                        <mxPoint x="428" y="210" as="targetPoint"/>
                        <mxPoint x="308" y="209" as="sourcePoint"/>
                    </mxGeometry>
                </mxCell>
                <mxCell id="NXFUlHPYo5hBLQqX9jPC-93" value="scene&lt;br&gt;def&lt;br&gt;image" style="rounded=0;whiteSpace=wrap;html=1;fillColor=#6a00ff;fontColor=#ffffff;strokeColor=#3700CC;" vertex="1" parent="1">
                    <mxGeometry x="420" y="74" width="60" height="40" as="geometry"/>
                </mxCell>
                <mxCell id="NXFUlHPYo5hBLQqX9jPC-94" style="edgeStyle=none;html=1;entryX=0;entryY=0.5;entryDx=0;entryDy=0;exitX=1;exitY=0.5;exitDx=0;exitDy=0;" edge="1" parent="1" target="NXFUlHPYo5hBLQqX9jPC-95" source="35">
                    <mxGeometry relative="1" as="geometry">
                        <mxPoint x="438" y="220" as="targetPoint"/>
                        <mxPoint x="318" y="219" as="sourcePoint"/>
                    </mxGeometry>
                </mxCell>
                <mxCell id="NXFUlHPYo5hBLQqX9jPC-95" value="scene&lt;br&gt;def&lt;br&gt;color" style="rounded=0;whiteSpace=wrap;html=1;fillColor=#6a00ff;fontColor=#ffffff;strokeColor=#3700CC;" vertex="1" parent="1">
                    <mxGeometry x="421" y="125" width="60" height="40" as="geometry"/>
                </mxCell>
                <mxCell id="NXFUlHPYo5hBLQqX9jPC-96" style="edgeStyle=none;html=1;exitX=1;exitY=0.5;exitDx=0;exitDy=0;" edge="1" parent="1" target="NXFUlHPYo5hBLQqX9jPC-97" source="NXFUlHPYo5hBLQqX9jPC-75">
                    <mxGeometry relative="1" as="geometry">
                        <mxPoint x="479" y="559.0000000000001" as="targetPoint"/>
                        <mxPoint x="430" y="570" as="sourcePoint"/>
                    </mxGeometry>
                </mxCell>
                <mxCell id="NXFUlHPYo5hBLQqX9jPC-97" value="render&lt;br&gt;bakgnd" style="rounded=0;whiteSpace=wrap;html=1;fillColor=#6a00ff;fontColor=#ffffff;strokeColor=#3700CC;" vertex="1" parent="1">
                    <mxGeometry x="560" y="500" width="60" height="40" as="geometry"/>
                </mxCell>
                <mxCell id="NXFUlHPYo5hBLQqX9jPC-98" style="edgeStyle=none;html=1;exitX=1;exitY=0.5;exitDx=0;exitDy=0;" edge="1" parent="1" target="NXFUlHPYo5hBLQqX9jPC-99" source="52">
                    <mxGeometry relative="1" as="geometry">
                        <mxPoint x="479" y="429" as="targetPoint"/>
                        <mxPoint x="440" y="440" as="sourcePoint"/>
                    </mxGeometry>
                </mxCell>
                <mxCell id="NXFUlHPYo5hBLQqX9jPC-99" value="game&lt;br&gt;init" style="rounded=0;whiteSpace=wrap;html=1;fillColor=#6a00ff;fontColor=#ffffff;strokeColor=#3700CC;" vertex="1" parent="1">
                    <mxGeometry x="420" y="409" width="60" height="40" as="geometry"/>
                </mxCell>
                <mxCell id="NXFUlHPYo5hBLQqX9jPC-100" style="edgeStyle=none;html=1;entryX=0;entryY=0.5;entryDx=0;entryDy=0;exitX=1;exitY=0.5;exitDx=0;exitDy=0;" edge="1" parent="1" target="NXFUlHPYo5hBLQqX9jPC-101" source="NXFUlHPYo5hBLQqX9jPC-78">
                    <mxGeometry relative="1" as="geometry">
                        <mxPoint x="457" y="724" as="targetPoint"/>
                        <mxPoint x="330" y="611" as="sourcePoint"/>
                    </mxGeometry>
                </mxCell>
                <mxCell id="NXFUlHPYo5hBLQqX9jPC-101" value="game&lt;br&gt;keyhook" style="rounded=0;whiteSpace=wrap;html=1;fillColor=#6a00ff;fontColor=#ffffff;strokeColor=#3700CC;" vertex="1" parent="1">
                    <mxGeometry x="421" y="589" width="60" height="40" as="geometry"/>
                </mxCell>
                <mxCell id="NXFUlHPYo5hBLQqX9jPC-102" style="edgeStyle=none;html=1;entryX=0;entryY=0.5;entryDx=0;entryDy=0;exitX=1;exitY=0.5;exitDx=0;exitDy=0;" edge="1" parent="1" target="NXFUlHPYo5hBLQqX9jPC-103" source="NXFUlHPYo5hBLQqX9jPC-101">
                    <mxGeometry relative="1" as="geometry">
                        <mxPoint x="597" y="724" as="targetPoint"/>
                        <mxPoint x="500" y="640" as="sourcePoint"/>
                    </mxGeometry>
                </mxCell>
                <mxCell id="NXFUlHPYo5hBLQqX9jPC-103" value="game&lt;br&gt;turn" style="rounded=0;whiteSpace=wrap;html=1;fillColor=#6a00ff;fontColor=#ffffff;strokeColor=#3700CC;" vertex="1" parent="1">
                    <mxGeometry x="560" y="589" width="60" height="40" as="geometry"/>
                </mxCell>
                <mxCell id="NXFUlHPYo5hBLQqX9jPC-104" style="edgeStyle=none;html=1;exitX=1;exitY=0.75;exitDx=0;exitDy=0;entryX=0;entryY=0.5;entryDx=0;entryDy=0;" edge="1" parent="1" source="NXFUlHPYo5hBLQqX9jPC-78" target="NXFUlHPYo5hBLQqX9jPC-105">
                    <mxGeometry relative="1" as="geometry">
                        <mxPoint x="400" y="640" as="targetPoint"/>
                        <mxPoint x="331" y="620" as="sourcePoint"/>
                    </mxGeometry>
                </mxCell>
                <mxCell id="NXFUlHPYo5hBLQqX9jPC-105" value="exit&lt;br&gt;mlx&lt;br&gt;break" style="rounded=0;whiteSpace=wrap;html=1;fillColor=#6a00ff;fontColor=#ffffff;strokeColor=#3700CC;" vertex="1" parent="1">
                    <mxGeometry x="421" y="629" width="60" height="40" as="geometry"/>
                </mxCell>
                <mxCell id="NXFUlHPYo5hBLQqX9jPC-106" value="mlx&lt;br&gt;hook" style="rounded=0;whiteSpace=wrap;html=1;fillColor=#6a00ff;fontColor=#ffffff;strokeColor=#3700CC;" vertex="1" parent="1">
                    <mxGeometry x="421" y="670" width="60" height="40" as="geometry"/>
                </mxCell>
                <mxCell id="NXFUlHPYo5hBLQqX9jPC-107" style="edgeStyle=none;html=1;entryX=0;entryY=0.5;entryDx=0;entryDy=0;exitX=1;exitY=0.5;exitDx=0;exitDy=0;" edge="1" parent="1" source="NXFUlHPYo5hBLQqX9jPC-80" target="NXFUlHPYo5hBLQqX9jPC-106">
                    <mxGeometry relative="1" as="geometry">
                        <mxPoint x="421" y="695" as="targetPoint"/>
                        <mxPoint x="321" y="685" as="sourcePoint"/>
                    </mxGeometry>
                </mxCell>
                <mxCell id="NXFUlHPYo5hBLQqX9jPC-108" style="edgeStyle=none;html=1;exitX=0;exitY=0.25;exitDx=0;exitDy=0;entryX=0.5;entryY=1;entryDx=0;entryDy=0;" edge="1" parent="1" source="NXFUlHPYo5hBLQqX9jPC-106" target="NXFUlHPYo5hBLQqX9jPC-75">
                    <mxGeometry relative="1" as="geometry">
                        <mxPoint x="320" y="570" as="targetPoint"/>
                        <mxPoint x="331" y="700" as="sourcePoint"/>
                    </mxGeometry>
                </mxCell>
                <mxCell id="NXFUlHPYo5hBLQqX9jPC-109" style="edgeStyle=none;html=1;entryX=0;entryY=0.5;entryDx=0;entryDy=0;exitX=1;exitY=0.5;exitDx=0;exitDy=0;" edge="1" parent="1" target="NXFUlHPYo5hBLQqX9jPC-110" source="NXFUlHPYo5hBLQqX9jPC-101">
                    <mxGeometry relative="1" as="geometry">
                        <mxPoint x="597" y="764" as="targetPoint"/>
                        <mxPoint x="481" y="648.9999999999999" as="sourcePoint"/>
                    </mxGeometry>
                </mxCell>
                <mxCell id="NXFUlHPYo5hBLQqX9jPC-110" value="game&lt;br&gt;move" style="rounded=0;whiteSpace=wrap;html=1;fillColor=#6a00ff;fontColor=#ffffff;strokeColor=#3700CC;" vertex="1" parent="1">
                    <mxGeometry x="560" y="629" width="60" height="40" as="geometry"/>
                </mxCell>
                <mxCell id="NXFUlHPYo5hBLQqX9jPC-111" value="" style="endArrow=classic;html=1;exitX=0;exitY=0;exitDx=0;exitDy=0;entryX=1;entryY=0.75;entryDx=0;entryDy=0;" edge="1" parent="1" source="NXFUlHPYo5hBLQqX9jPC-112" target="35">
                    <mxGeometry width="50" height="50" relative="1" as="geometry">
                        <mxPoint x="476" y="278.5" as="sourcePoint"/>
                        <mxPoint x="319" y="260" as="targetPoint"/>
                    </mxGeometry>
                </mxCell>
                <mxCell id="NXFUlHPYo5hBLQqX9jPC-112" value="cub&lt;br&gt;file" style="ellipse;whiteSpace=wrap;html=1;" vertex="1" parent="1">
                    <mxGeometry x="358" y="142" width="42" height="35" as="geometry"/>
                </mxCell>
                <mxCell id="NXFUlHPYo5hBLQqX9jPC-113" value="" style="endArrow=classic;html=1;exitX=0;exitY=0.5;exitDx=0;exitDy=0;entryX=1;entryY=0.5;entryDx=0;entryDy=0;" edge="1" parent="1" source="NXFUlHPYo5hBLQqX9jPC-112" target="44">
                    <mxGeometry width="50" height="50" relative="1" as="geometry">
                        <mxPoint x="429" y="139" as="sourcePoint"/>
                        <mxPoint x="319" y="180.00000000000006" as="targetPoint"/>
                    </mxGeometry>
                </mxCell>
                <mxCell id="NXFUlHPYo5hBLQqX9jPC-115" style="edgeStyle=none;html=1;exitX=1;exitY=0.5;exitDx=0;exitDy=0;entryX=0.5;entryY=1;entryDx=0;entryDy=0;" edge="1" parent="1" source="NXFUlHPYo5hBLQqX9jPC-77" target="NXFUlHPYo5hBLQqX9jPC-75">
                    <mxGeometry relative="1" as="geometry">
                        <mxPoint x="381" y="590" as="targetPoint"/>
                        <mxPoint x="431" y="690" as="sourcePoint"/>
                    </mxGeometry>
                </mxCell>
                <mxCell id="NXFUlHPYo5hBLQqX9jPC-116" value="img&lt;br&gt;texture&lt;br&gt;load" style="rounded=0;whiteSpace=wrap;html=1;fillColor=#6a00ff;fontColor=#ffffff;strokeColor=#3700CC;" vertex="1" parent="1">
                    <mxGeometry x="419" y="490" width="60" height="40" as="geometry"/>
                </mxCell>
                <mxCell id="NXFUlHPYo5hBLQqX9jPC-117" style="edgeStyle=none;html=1;exitX=1;exitY=0.5;exitDx=0;exitDy=0;entryX=0;entryY=0.5;entryDx=0;entryDy=0;" edge="1" parent="1" source="NXFUlHPYo5hBLQqX9jPC-76" target="NXFUlHPYo5hBLQqX9jPC-116">
                    <mxGeometry relative="1" as="geometry">
                        <mxPoint x="430" y="439.23076923076917" as="targetPoint"/>
                        <mxPoint x="330" y="440" as="sourcePoint"/>
                    </mxGeometry>
                </mxCell>
                <mxCell id="NXFUlHPYo5hBLQqX9jPC-120" value="xpm&lt;br&gt;file" style="ellipse;whiteSpace=wrap;html=1;" vertex="1" parent="1">
                    <mxGeometry x="560" y="452.5" width="42" height="35" as="geometry"/>
                </mxCell>
                <mxCell id="NXFUlHPYo5hBLQqX9jPC-121" style="edgeStyle=none;html=1;exitX=0;exitY=0.5;exitDx=0;exitDy=0;entryX=1;entryY=0.5;entryDx=0;entryDy=0;" edge="1" parent="1" target="NXFUlHPYo5hBLQqX9jPC-116" source="NXFUlHPYo5hBLQqX9jPC-120">
                    <mxGeometry relative="1" as="geometry">
                        <mxPoint x="500" y="505" as="sourcePoint"/>
                        <mxPoint x="510" y="480" as="targetPoint"/>
                    </mxGeometry>
                </mxCell>
                <mxCell id="NXFUlHPYo5hBLQqX9jPC-122" style="edgeStyle=none;html=1;exitX=1;exitY=0.5;exitDx=0;exitDy=0;" edge="1" parent="1" target="NXFUlHPYo5hBLQqX9jPC-123" source="NXFUlHPYo5hBLQqX9jPC-75">
                    <mxGeometry relative="1" as="geometry">
                        <mxPoint x="479" y="606.0000000000001" as="targetPoint"/>
                        <mxPoint x="401" y="607" as="sourcePoint"/>
                    </mxGeometry>
                </mxCell>
                <mxCell id="NXFUlHPYo5hBLQqX9jPC-123" value="render&lt;br&gt;visible" style="rounded=0;whiteSpace=wrap;html=1;fillColor=#6a00ff;fontColor=#ffffff;strokeColor=#3700CC;" vertex="1" parent="1">
                    <mxGeometry x="560" y="540" width="59" height="40" as="geometry"/>
                </mxCell>
            </root>
        </mxGraphModel>
    </diagram>
</mxfile>